<svg width="320" height="36" fill="none" xmlns="http://www.w3.org/2000/svg">
<rect width="320" height="36" rx="6" fill="#F9F9F9"/>
<path d="M148.496 23h5.523v-1.134h-4.206v-2.671h3.869v-1.13h-3.869v-2.659h4.155v-1.133h-5.472V23zm16.507-1.1h-1.108v-5.445h-1.248v5.441h-2.263v-5.442h-1.249v5.442h-2.262v-5.442h-1.249V23h8.011v1.875h1.249l.119-2.974zm4.094 1.232c1.428 0 2.438-.703 2.728-1.768l-1.206-.218c-.23.618-.784.933-1.509.933-1.091 0-1.824-.707-1.858-1.968h4.654v-.452c0-2.365-1.415-3.29-2.898-3.29-1.824 0-3.026 1.39-3.026 3.4 0 2.034 1.185 3.363 3.115 3.363zm-1.84-3.976c.051-.929.724-1.734 1.76-1.734.988 0 1.636.733 1.64 1.734h-3.4zm.451-3.728c.426 0 .75-.346.75-.742a.734.734 0 00-.75-.746c-.4 0-.754.324-.754.746 0 .396.354.742.754.742zm2.506 0c.426 0 .75-.346.75-.742a.734.734 0 00-.75-.746.753.753 0 00-.754.746c0 .396.353.742.754.742z" fill="#000"/>
</svg>